<svg width="56" height="56" viewBox="0 0 56 56" fill="none" xmlns="http://www.w3.org/2000/svg">
<g clip-path="url(#clip0_1:3338)">
<path d="M56 41.4175H0V56H56V41.4175Z" fill="#004985"/>
<path d="M5.64056 48.8143C5.64056 47.5545 6.34509 47.109 7.01083 47.109C7.67657 47.109 8.38325 47.563 8.38325 48.8143C8.38325 50.0656 7.67657 50.5196 7.01083 50.5196C6.34509 50.5196 5.64056 50.0805 5.64056 48.8143ZM7.73905 48.8143C7.73905 47.8721 7.34047 47.6781 7.01083 47.6781C6.68119 47.6781 6.28692 47.8721 6.28692 48.8143C6.28692 49.7565 6.67904 49.9504 7.01083 49.9504C7.34263 49.9504 7.73905 49.7629 7.73905 48.8143Z" fill="#FECB00"/>
<path d="M8.98645 50.5068V47.1346H11.1754V47.708H9.62418V48.5606H10.5808V49.134H9.62418V50.5025L8.98645 50.5068Z" fill="#FECB00"/>
<path d="M11.783 50.5068V47.1346H13.9698V47.708H12.4185V48.5606H13.3773V49.134H12.4185V50.5025L11.783 50.5068Z" fill="#FECB00"/>
<path d="M14.5149 50.5068V50.0037H15.1246V47.6355H14.5149V47.1346H16.3742V47.6355H15.771V50.0037H16.3742V50.5068H14.5149Z" fill="#FECB00"/>
<path d="M19.4746 49.5305C19.2204 50.2744 18.7141 50.5345 18.2293 50.5345C17.583 50.5345 16.8698 50.0847 16.8698 48.8292C16.8698 47.5737 17.5937 47.1239 18.2293 47.1239C18.7141 47.1239 19.2204 47.384 19.4703 48.1215L18.8627 48.275C18.7141 47.8337 18.4792 47.7016 18.2293 47.7016C17.9234 47.7016 17.5162 47.8955 17.5162 48.8377C17.5162 49.7799 17.9234 49.9739 18.2358 49.9739C18.4835 49.9739 18.7098 49.846 18.8563 49.4239L19.4746 49.5305Z" fill="#FECB00"/>
<path d="M20.0003 50.5068V50.0037H20.6079V47.6355H20.0003V47.1346H21.8489V47.6355H21.2456V50.0037H21.8489V50.5068H20.0003Z" fill="#FECB00"/>
<path d="M24.5873 50.5068L24.318 49.6925H23.314L23.0533 50.5068H22.3854L23.51 47.1346H24.1305L25.2573 50.5068H24.5873ZM23.816 48.162L23.4993 49.1234H24.1456L23.816 48.162Z" fill="#FECB00"/>
<path d="M25.8541 50.5068V47.1346H26.5004V49.9334H27.7199V50.5068H25.8541Z" fill="#FECB00"/>
<path d="M31.1972 48.3006C31.1541 47.8742 30.9818 47.6845 30.7082 47.6845C30.6546 47.6786 30.6005 47.6835 30.5489 47.6988C30.4973 47.7141 30.4494 47.7395 30.408 47.7735C30.3666 47.8075 30.3325 47.8495 30.3078 47.8968C30.2831 47.9441 30.2683 47.9959 30.2643 48.049C30.2643 48.2899 30.4798 48.3794 30.6758 48.4519L31.1498 48.6352C31.5463 48.793 31.8824 49.0061 31.8824 49.5305C31.8824 50.1849 31.3696 50.5345 30.7319 50.5345C30.0295 50.5345 29.5253 50.1082 29.5253 49.3941L30.1006 49.2704C30.148 49.6968 30.344 49.9568 30.7232 49.9568C30.9667 49.9568 31.236 49.8524 31.236 49.5689C31.236 49.2854 31.0206 49.2278 30.7426 49.1234L30.2966 48.9486C29.8851 48.7866 29.6223 48.55 29.6223 48.0959C29.6223 47.4714 30.1157 47.1068 30.7189 47.1068C31.3222 47.1068 31.7703 47.5033 31.7703 48.1727L31.1972 48.3006Z" fill="#FECB00"/>
<path d="M32.518 50.5068V47.1346H33.6771C34.3989 47.1346 34.8018 47.5609 34.8018 48.1897C34.8018 48.8186 34.3989 49.2193 33.6771 49.2193H33.1557V50.4983L32.518 50.5068ZM33.6427 48.6459C33.9637 48.6459 34.1554 48.4988 34.1554 48.1897C34.1612 48.1228 34.1518 48.0554 34.1276 47.9926C34.1035 47.9297 34.0654 47.8731 34.0162 47.8268C33.9669 47.7805 33.9078 47.7458 33.8431 47.7253C33.7785 47.7047 33.7099 47.6988 33.6427 47.708H33.1557V48.6459H33.6427Z" fill="#FECB00"/>
<path d="M35.3188 48.8143C35.3188 47.5545 36.0212 47.109 36.687 47.109C37.3527 47.109 38.0615 47.563 38.0615 48.8143C38.0615 50.0656 37.3527 50.5196 36.687 50.5196C36.0212 50.5196 35.3188 50.0805 35.3188 48.8143ZM37.4152 48.8143C37.4152 47.8721 37.0166 47.6781 36.687 47.6781C36.3573 47.6781 35.9652 47.8721 35.9652 48.8143C35.9652 49.7565 36.3573 49.9504 36.687 49.9504C37.0166 49.9504 37.4152 49.7629 37.4152 48.8143Z" fill="#FECB00"/>
<path d="M40.7073 50.5068L39.3349 48.3134V50.5068H38.6885V47.1346H39.3069L40.675 49.3174V47.1346H41.3213V50.5068H40.7073Z" fill="#FECB00"/>
<path d="M43.5319 48.3006C43.4888 47.8742 43.3164 47.6845 43.0449 47.6845C42.9913 47.6783 42.9369 47.683 42.8851 47.6981C42.8332 47.7133 42.785 47.7386 42.7434 47.7727C42.7017 47.8067 42.6674 47.8487 42.6426 47.8962C42.6178 47.9437 42.603 47.9957 42.599 48.049C42.599 48.2899 42.8144 48.3794 43.0105 48.4519L43.4845 48.6352C43.8809 48.793 44.217 49.0061 44.217 49.5305C44.217 50.1849 43.7042 50.5345 43.0686 50.5345C42.3641 50.5345 41.8621 50.1082 41.8621 49.3941L42.4352 49.2704C42.4848 49.6968 42.6808 49.9568 43.0579 49.9568C43.3035 49.9568 43.5706 49.8524 43.5706 49.5689C43.5706 49.2854 43.3552 49.2278 43.0773 49.1234L42.6334 48.9486C42.2198 48.7866 41.9569 48.55 41.9569 48.0959C41.9569 47.4714 42.4503 47.1068 43.0536 47.1068C43.6568 47.1068 44.1071 47.5033 44.1071 48.1727L43.5319 48.3006Z" fill="#FECB00"/>
<path d="M44.7104 48.8143C44.7104 47.5545 45.4128 47.109 46.0785 47.109C46.7442 47.109 47.4531 47.563 47.4531 48.8143C47.4531 50.0656 46.7442 50.5196 46.0785 50.5196C45.4128 50.5196 44.7104 50.0805 44.7104 48.8143ZM46.8067 48.8143C46.8067 47.8721 46.4081 47.6781 46.0785 47.6781C45.7489 47.6781 45.3567 47.8721 45.3567 48.8143C45.3567 49.7565 45.7489 49.9504 46.0785 49.9504C46.4081 49.9504 46.8067 49.7629 46.8067 48.8143Z" fill="#FECB00"/>
<path d="M49.7175 50.5068L48.7975 49.1277H48.6294V50.5068H47.9831V47.1346H49.1465C49.864 47.1346 50.2712 47.5332 50.2712 48.1428C50.2867 48.3691 50.2154 48.5927 50.0717 48.7693C49.928 48.9459 49.7222 49.0624 49.4956 49.0957L50.4242 50.5068H49.7175ZM49.1228 48.5564C49.4395 48.5564 49.6356 48.4221 49.6356 48.1428C49.6356 47.8636 49.4395 47.7165 49.1228 47.7165H48.6294V48.5692L49.1228 48.5564Z" fill="#FECB00"/>
<path d="M56 0H0V39.7591H56V0Z" fill="#FECB00"/>
<path d="M18.4878 24.2558L17.3115 20.5318L16.1459 24.2558H14.6313L12.7633 16.7823H14.2779L15.618 21.8236L16.8116 17.7863H17.8264L19.0178 21.8236L20.3579 16.7823H21.8575L20.0025 24.2558H18.4878Z" fill="#004985"/>
<path d="M23.6199 21.0285C23.7966 22.576 24.6519 22.8702 25.3435 22.8702C25.6893 22.8762 26.0308 22.7938 26.3351 22.631C26.6393 22.4682 26.8959 22.2305 27.0801 21.9408L28.4352 22.2947C28.0367 23.5481 26.8883 24.3453 25.3737 24.3453C23.6501 24.3453 22.004 23.3285 22.004 20.5425C22.004 17.7117 23.6975 16.6949 25.3306 16.6949C26.9637 16.6949 28.6399 17.7117 28.6399 20.5318V21.0349L23.6199 21.0285ZM26.9896 19.7751C26.7741 18.4343 25.9899 18.1678 25.3715 18.1678C24.6519 18.1678 23.9 18.5515 23.635 19.7751H26.9896Z" fill="#004985"/>
<path d="M34.4915 24.2558L34.4333 23.5779C33.7568 24.1684 33.1966 24.3453 32.5805 24.3453C31.0938 24.3453 29.3487 23.3285 29.3487 20.5084C29.3487 17.6882 31.0938 16.6949 32.5331 16.6949C33.2096 16.6949 33.7547 16.9081 34.3859 17.4474V13.7618H35.9458V24.2558H34.4915ZM34.3881 20.0096C34.1963 18.7136 33.4466 18.1679 32.6085 18.1679C31.8889 18.1679 30.9452 18.5665 30.9452 20.5276C30.9452 22.446 31.8738 22.8724 32.6386 22.8724C33.3431 22.8724 34.1963 22.5185 34.3881 21.3248V20.0096Z" fill="#004985"/>
<path d="M38.5528 21.0285C38.7295 22.576 39.5826 22.8702 40.2764 22.8702C40.6219 22.876 40.963 22.7935 41.2669 22.6307C41.5707 22.4679 41.8269 22.2303 42.0108 21.9408L43.3638 22.2947C42.9674 23.5481 41.8212 24.3453 40.3044 24.3453C38.5808 24.3453 36.9348 23.3285 36.9348 20.5425C36.9348 17.7117 38.6282 16.6949 40.2613 16.6949C41.8944 16.6949 43.5706 17.7117 43.5706 20.5318V21.0349L38.5528 21.0285ZM41.9224 19.7751C41.707 18.4343 40.9227 18.1678 40.3044 18.1678C39.5826 18.1678 38.8329 18.5515 38.5808 19.7751H41.9224Z" fill="#004985"/>
<path d="M48.8255 24.2558V19.9371C48.8255 18.462 48.0908 18.1678 47.563 18.1678C46.9877 18.1678 46.281 18.5068 46.1044 19.5832V24.2558H44.5445V16.7823H45.988L46.0311 17.4026C46.6344 16.9017 47.1644 16.6949 47.7547 16.6949C48.9311 16.6949 50.3875 17.5049 50.3875 19.8049V24.2558H48.8255Z" fill="#004985"/>
<path d="M7.77346 19.2593C6.64019 18.8031 5.77192 18.1252 5.77192 16.68C5.77192 14.7935 7.22837 13.6744 9.05324 13.6744C10.8781 13.6744 12.1428 14.8511 12.173 16.7972L10.7294 17.1362C10.5829 15.7954 9.96459 15.19 9.02307 15.19C8.1979 15.19 7.40504 15.6483 7.40504 16.5329C7.40504 17.4175 8.1979 17.7416 8.83348 17.991L10.3201 18.5814C11.6343 19.0973 12.5242 19.805 12.5242 21.3163C12.5242 23.2625 10.9945 24.3539 9.06616 24.3539C6.99353 24.3539 5.47675 23.0855 5.46167 20.9624L6.90519 20.6683C7.08186 22.024 7.7433 22.834 9.03816 22.834C9.93443 22.834 10.876 22.4524 10.876 21.4207C10.876 20.4615 10.068 20.1823 9.19974 19.8433L7.77346 19.2593Z" fill="#004985"/>
<path d="M6.76729 30.3416C6.20281 30.1135 5.7719 29.7767 5.7719 29.0626C5.7719 28.1226 6.49582 27.5705 7.40287 27.5705C8.30992 27.5705 8.93903 28.1567 8.95196 29.1244L8.23666 29.2928C8.16341 28.6256 7.85531 28.3251 7.38779 28.3251C6.97843 28.3251 6.58415 28.5531 6.58415 28.9923C6.58415 29.4314 6.97843 29.5934 7.29299 29.717L8.03198 30.0112C8.67834 30.267 9.12863 30.6187 9.12863 31.3669C9.12863 32.3325 8.36809 32.8761 7.40502 32.8761C6.37517 32.8761 5.62109 32.2366 5.61462 31.19L6.33208 31.0429C6.41826 31.7186 6.7479 32.1215 7.39209 32.1215C7.83808 32.1215 8.30561 31.9296 8.30561 31.418C8.30561 30.9406 7.90271 30.802 7.47181 30.6336L6.76729 30.3416Z" fill="#004985"/>
<path d="M13.4161 31.2198C13.5044 31.9893 13.9267 32.1364 14.2779 32.1364C14.4496 32.1392 14.6192 32.0982 14.7702 32.0171C14.9212 31.9361 15.0485 31.8178 15.1397 31.6739L15.8119 31.8508C15.6158 32.4732 15.0449 32.8697 14.3038 32.8697C13.4419 32.8697 12.6297 32.3645 12.6297 30.9789C12.6297 29.5934 13.47 29.0605 14.2801 29.0605C15.0901 29.0605 15.9261 29.5657 15.9261 30.9662V31.2134L13.4161 31.2198ZM15.0815 30.5974C14.9717 29.9302 14.5838 29.8002 14.2779 29.8002C13.9181 29.8002 13.5475 29.9899 13.4161 30.5974H15.0815Z" fill="#004985"/>
<path d="M18.6818 32.8271V32.1172H19.4272V29.8215H18.6818V29.1116H20.1899V32.1151H20.9354V32.8271H18.6818ZM19.8 28.6363C19.6621 28.6242 19.5338 28.5615 19.4403 28.4605C19.3469 28.3595 19.295 28.2275 19.295 28.0906C19.295 27.9537 19.3469 27.8217 19.4403 27.7207C19.5338 27.6197 19.6621 27.557 19.8 27.5449C19.9462 27.5449 20.0865 27.6024 20.19 27.7047C20.2934 27.8071 20.3515 27.9459 20.3515 28.0906C20.3515 28.2353 20.2934 28.3741 20.19 28.4765C20.0865 28.5788 19.9462 28.6363 19.8 28.6363Z" fill="#004985"/>
<path d="M23.5553 32.5031C23.3166 32.738 22.9935 32.8698 22.6569 32.8697C21.9179 32.8697 21.0539 32.3645 21.0539 30.964C21.0539 29.5635 21.9157 29.0669 22.6482 29.0669C22.8212 29.0679 22.9923 29.1027 23.1516 29.1693C23.311 29.2358 23.4555 29.3329 23.5768 29.4548L23.5984 29.1116H24.3309V32.8271C24.3309 33.7138 23.7018 34.3746 22.7129 34.3746C21.9545 34.3746 21.39 33.9931 21.2047 33.3557L21.8769 33.1788C21.9682 33.3228 22.0954 33.441 22.2464 33.522C22.3974 33.6031 22.567 33.6442 22.7387 33.6413C22.8486 33.6503 22.9591 33.6352 23.0625 33.5973C23.1659 33.5594 23.2596 33.4995 23.337 33.4218C23.4144 33.3442 23.4737 33.2507 23.5107 33.1479C23.5477 33.0452 23.5614 32.9357 23.551 32.8271L23.5553 32.5031ZM23.5553 30.7146C23.4605 30.0751 23.0878 29.8001 22.6698 29.8001C22.3121 29.8001 21.8446 30.0133 21.8446 30.9725C21.8446 31.9318 22.3057 32.1364 22.6849 32.1364C22.901 32.1425 23.1112 32.0659 23.2717 31.9226C23.4322 31.7793 23.5307 31.5802 23.5467 31.3669L23.5553 30.7146Z" fill="#004985"/>
<path d="M25.5331 31.2198C25.6214 31.9893 26.0459 32.1364 26.3949 32.1364C26.5666 32.1388 26.736 32.0976 26.8869 32.0166C27.0378 31.9356 27.1651 31.8176 27.2567 31.6739L27.9289 31.8508C27.7307 32.4732 27.1597 32.8697 26.4078 32.8697C25.546 32.8697 24.7338 32.3645 24.7338 30.9789C24.7338 29.5934 25.574 29.0605 26.3863 29.0605C27.1985 29.0605 28.0302 29.5657 28.0302 30.9662V31.2134L25.5331 31.2198ZM27.2071 30.5974C27.0973 29.9302 26.7116 29.8002 26.4035 29.8002C26.0459 29.8002 25.6731 29.9899 25.5417 30.5974H27.2071Z" fill="#004985"/>
<path d="M18.3629 29.118C18.2461 29.0873 18.1261 29.0701 18.0052 29.0669C17.6604 29.1058 17.3437 29.2736 17.1197 29.5358L17.0917 29.1095H16.3743V32.8271H17.1477V30.6784C17.2512 30.0858 17.6088 29.8875 17.9384 29.8875C18.0837 29.8937 18.228 29.9137 18.3693 29.9472L18.3629 29.118Z" fill="#004985"/>
<path d="M10.5334 32.825L9.21704 29.1095H10.0207L10.9126 31.7591L11.8068 29.1095H12.6082L11.2918 32.825H10.5334Z" fill="#004985"/>
<path d="M50.3875 32.793V27.579H49.6399V32.793H50.3875ZM34.875 32.8505C35.7627 32.8505 36.4155 32.4242 36.4155 31.4841C36.3909 31.0163 36.3348 30.5505 36.2475 30.0901L35.5063 30.1561C35.5787 30.5545 35.6276 30.9566 35.6528 31.3605C35.6528 31.8657 35.3986 32.0789 34.7371 32.0789C34.4753 32.0806 34.2142 32.0512 33.9594 31.9915C34.0004 31.8385 34.02 31.6807 34.0175 31.5225C33.9783 30.6157 33.6819 29.7381 33.1622 28.9901L32.4555 29.2779C33.0739 30.2094 33.2333 31.0024 33.2333 31.4223C33.2333 31.789 33.1105 32.0746 32.434 32.0746H31.4041L31.4257 32.8463H32.3176C32.6873 32.863 33.056 32.7952 33.3949 32.648C33.8753 32.7662 34.3672 32.8326 34.8621 32.8463L34.875 32.8505ZM46.8843 32.8505C47.7461 32.8505 48.3924 32.4242 48.3924 31.4841V27.579H47.6297V31.3605C47.6297 31.8593 47.3755 32.0789 46.7442 32.0789C46.5177 32.0835 46.2918 32.0541 46.0742 31.9915C46.1216 31.8317 46.1441 31.6656 46.141 31.4991C46.1178 31.0261 46.0617 30.5553 45.9729 30.0901L45.2318 30.1561C45.3068 30.5641 45.3557 30.9763 45.3783 31.3904C45.3783 31.9766 45.1025 32.0789 44.7685 32.0789C44.5845 32.083 44.4015 32.0512 44.2299 31.9851C44.2445 31.8927 44.2517 31.7993 44.2515 31.7058V30.4567H43.4995V31.4778C43.4995 31.8806 43.353 32.0789 42.9911 32.0789C42.6291 32.0789 42.4524 31.8806 42.446 31.4778V30.4567H41.6962V31.4479C41.6596 31.9318 41.5152 32.0874 41.1727 32.0874H40.8818V31.5374C40.8818 30.0901 40.02 29.5316 39.2552 29.5316C38.6519 29.5316 37.6134 29.8769 37.6134 31.141C37.6134 32.324 38.5205 32.793 40.0674 32.8292C39.9748 33.1681 39.4512 33.4687 38.5355 33.4687C38.1001 33.4818 37.6676 33.3935 37.273 33.2108L36.9477 33.8929C37.3247 34.1295 38.0723 34.2318 38.6174 34.2318C39.7809 34.2318 40.6017 33.7607 40.8129 32.8441C40.9421 32.8441 41.0585 32.8441 41.1468 32.8441C41.4732 32.8693 41.7966 32.7668 42.0474 32.5585C42.3175 32.7571 42.6484 32.8579 42.9846 32.8441C43.253 32.8527 43.5188 32.7893 43.7538 32.6608C44.1222 32.7689 44.503 32.8305 44.887 32.8441C45.1374 32.8505 45.3846 32.787 45.6002 32.6608C46.0173 32.7713 46.4461 32.8328 46.8778 32.8441L46.8843 32.8505ZM38.3503 31.1218C38.3488 31.013 38.3695 30.905 38.411 30.8042C38.4525 30.7034 38.5141 30.612 38.5921 30.5352C38.6701 30.4585 38.7629 30.398 38.8649 30.3574C38.967 30.3168 39.0762 30.297 39.1862 30.299C39.5697 30.299 40.0933 30.6017 40.0933 31.6653V32.0917C38.96 32.0725 38.3503 31.7613 38.3503 31.1218Z" fill="#004985"/>
<path d="M34.4743 33.1895H33.6491V34.0272H34.4743V33.1895Z" fill="#004985"/>
<path d="M35.795 33.1895H34.9698V34.0272H35.795V33.1895Z" fill="#004985"/>
<path d="M8.71068 6.39274V5.66373H5.85596V10.2808H8.71068V9.54969H6.60357V8.31761H7.90059V7.58859H6.60357V6.39274H8.71068Z" fill="#004985"/>
<path d="M10.8673 8.54993L11.8369 7.02369L11.8907 6.94055H11.0268L10.4321 7.88273L9.84609 6.95547L9.83531 6.94055H8.97782L10.0055 8.54993L8.96274 10.1977L8.90887 10.2808H9.75991L10.4321 9.22992L11.0935 10.2574L11.1086 10.2808H11.964L10.8673 8.54993Z" fill="#004985"/>
<path d="M14.9695 7.96589C14.9268 7.7914 14.8539 7.62552 14.7541 7.47562C14.6647 7.34849 14.5539 7.23746 14.4266 7.14735C14.3079 7.06351 14.1762 6.99942 14.0366 6.95763C13.9037 6.91914 13.7658 6.89976 13.6273 6.90008C13.3521 6.89466 13.0832 6.98184 12.8646 7.14735L12.8516 6.93419H12.145V11.5598H12.8796V10.0933C13.0976 10.2403 13.3571 10.315 13.6208 10.3064C13.7942 10.313 13.9673 10.2877 14.1314 10.2318C14.3008 10.1656 14.4559 10.0679 14.5882 9.94405C14.743 9.79245 14.8596 9.60699 14.9286 9.40261C15.0151 9.15157 15.0574 8.88766 15.0535 8.62244C15.0568 8.40077 15.0285 8.17976 14.9695 7.96589ZM14.3059 8.60538C14.3072 8.74873 14.2921 8.89176 14.2607 9.03171C14.2394 9.13235 14.2016 9.22885 14.1486 9.31735C14.1059 9.38105 14.0519 9.43664 13.9892 9.48148C13.9339 9.51884 13.8728 9.54692 13.8082 9.56462C13.7433 9.57964 13.6767 9.5868 13.61 9.58593C13.1791 9.58593 12.9464 9.31308 12.8796 8.7546V8.32827C12.8929 8.20088 12.9286 8.07679 12.9852 7.96163C13.025 7.87756 13.0849 7.80438 13.1597 7.74847C13.2252 7.70254 13.298 7.66795 13.3752 7.64615C13.4454 7.62724 13.5178 7.61721 13.5906 7.61631C14.0732 7.6227 14.3059 7.94458 14.3059 8.60751V8.60538Z" fill="#004985"/>
<path d="M18.1108 7.96591C18.0681 7.79075 17.9952 7.62418 17.8953 7.47351C17.8044 7.34687 17.6921 7.23656 17.5635 7.14737C17.4421 7.06296 17.3074 6.99887 17.165 6.95765C16.8829 6.8811 16.5852 6.8811 16.3032 6.95765C16.1604 6.998 16.0256 7.06216 15.9046 7.14737C15.7755 7.236 15.6632 7.34639 15.5728 7.47351C15.4738 7.62465 15.401 7.79107 15.3573 7.96591C15.3017 8.17458 15.2742 8.3896 15.2755 8.6054C15.2738 8.82122 15.3014 9.03628 15.3573 9.24489C15.4005 9.41858 15.4733 9.58368 15.5728 9.73303C15.6632 9.86015 15.7755 9.97054 15.9046 10.0592C16.0259 10.1433 16.1606 10.2068 16.3032 10.2468C16.5853 10.3226 16.8828 10.3226 17.165 10.2468C17.4528 10.1626 17.7048 9.98737 17.8824 9.74795C17.9819 9.5986 18.0547 9.4335 18.0979 9.25981C18.1538 9.05121 18.1813 8.83614 18.1797 8.62032C18.1866 8.40011 18.1634 8.17999 18.1108 7.96591ZM16.9387 7.64404C17.0052 7.6612 17.0679 7.69009 17.124 7.7293C17.1882 7.77221 17.2431 7.82727 17.2856 7.89131C17.3376 7.98024 17.3754 8.07659 17.3976 8.17694C17.4308 8.31663 17.4468 8.45979 17.445 8.60327C17.447 8.74677 17.4311 8.88995 17.3976 9.0296C17.3751 9.12917 17.3373 9.22477 17.2856 9.3131C17.2431 9.37714 17.1882 9.4322 17.124 9.47511C17.068 9.5144 17.0052 9.54329 16.9387 9.56037C16.804 9.59021 16.6642 9.59021 16.5294 9.56037C16.4626 9.54411 16.3997 9.51515 16.3441 9.47511C16.2788 9.43288 16.223 9.37772 16.1804 9.3131C16.127 9.22537 16.0884 9.12961 16.0662 9.0296C16.0337 8.88978 16.0178 8.74671 16.0188 8.60327C16.0181 8.45984 16.034 8.3168 16.0662 8.17694C16.0869 8.07447 16.1255 7.97636 16.1804 7.88704C16.2626 7.76509 16.3865 7.67655 16.5294 7.63764C16.6 7.62176 16.6724 7.6146 16.7448 7.61633C16.8103 7.61858 16.8753 7.62787 16.9387 7.64404Z" fill="#004985"/>
<path d="M21.2995 9.48788L22.3983 8.29417L22.4866 8.19825L22.6137 8.04903C22.6646 7.99166 22.7107 7.93036 22.7516 7.86571L22.7667 7.83587C22.7882 7.79963 22.8119 7.75487 22.8464 7.69731C22.8881 7.62655 22.92 7.55055 22.9412 7.47136C22.9563 7.41167 22.9692 7.34133 22.9865 7.2582C23.002 7.16878 23.0099 7.07822 23.0102 6.98748C23.0186 6.8073 22.9908 6.62725 22.9283 6.45782C22.8658 6.28838 22.7699 6.13293 22.646 6.00054C22.5168 5.87523 22.3629 5.77763 22.1939 5.71381C22.0248 5.65 21.8443 5.62134 21.6636 5.62963C21.4705 5.62205 21.2779 5.65498 21.0986 5.72625C20.9192 5.79752 20.7571 5.90553 20.623 6.04317C20.349 6.35755 20.2092 6.76491 20.233 7.17933V7.27099H20.9957V7.17933C20.9815 6.96134 21.0439 6.74519 21.1724 6.56755C21.2322 6.49707 21.3076 6.44117 21.3928 6.40421C21.478 6.36724 21.5707 6.35019 21.6636 6.35439C21.7435 6.34912 21.8237 6.3615 21.8982 6.39062C21.9727 6.41974 22.0398 6.46489 22.0945 6.52279C22.2005 6.66236 22.2531 6.83451 22.2431 7.0088C22.245 7.14159 22.2155 7.27298 22.157 7.39249C22.0664 7.54765 21.9563 7.69089 21.8295 7.81882L20.2093 9.55396L20.1877 9.59233V10.2851H23.1093V9.48788H21.2995Z" fill="#004985"/>
<path d="M26.787 7.07916C26.7354 6.84379 26.6467 6.61791 26.5241 6.40983C26.4182 6.23909 26.2834 6.08767 26.1256 5.96218C25.9835 5.84858 25.8223 5.76056 25.6494 5.70213C25.3162 5.59962 24.9593 5.59962 24.626 5.70213C24.4527 5.7625 24.2915 5.8527 24.1499 5.96858C23.9917 6.09306 23.8574 6.24469 23.7535 6.41622C23.6287 6.62169 23.5378 6.84546 23.4841 7.07916C23.4165 7.37207 23.3839 7.67186 23.3872 7.97231C23.3839 8.27276 23.4165 8.57255 23.4841 8.86546C23.5362 9.10101 23.6257 9.32691 23.7491 9.53479C23.8537 9.70584 23.9879 9.85737 24.1456 9.98244C24.2892 10.0936 24.452 10.1781 24.626 10.2318C24.9593 10.3343 25.3162 10.3343 25.6494 10.2318C25.8234 10.1753 25.9854 10.0879 26.1277 9.97391C26.2843 9.84777 26.4183 9.69644 26.5241 9.52627C26.6463 9.318 26.735 9.09218 26.787 8.85694C26.8565 8.56429 26.8898 8.26437 26.8861 7.96378C26.8891 7.66604 26.8558 7.36903 26.787 7.07916ZM26.1213 7.97231C26.1241 8.20695 26.1024 8.44125 26.0566 8.67148C26.0268 8.83464 25.9731 8.99262 25.8972 9.14044C25.8394 9.24439 25.7618 9.33632 25.6688 9.41116C25.5935 9.47424 25.5064 9.52205 25.4124 9.55185C25.3233 9.57623 25.2312 9.58842 25.1388 9.58808C24.9699 9.59205 24.8036 9.54684 24.6605 9.45805L26.0502 7.22837C26.1006 7.47313 26.1245 7.72253 26.1213 7.97231ZM25.6688 6.53133L24.2425 8.79938C24.1771 8.53076 24.1467 8.25496 24.152 7.9787C24.149 7.74265 24.1707 7.50692 24.2167 7.27527C24.2476 7.11171 24.3012 6.95318 24.3761 6.80418C24.4293 6.70022 24.5025 6.60754 24.5916 6.53133C24.6674 6.46958 24.7544 6.42257 24.8479 6.39277C24.9392 6.36826 25.0334 6.35607 25.128 6.35654C25.324 6.3464 25.5167 6.4087 25.6688 6.53133Z" fill="#004985"/>
<path d="M28.2004 9.48788L29.2992 8.29417L29.3875 8.19825C29.4069 8.17693 29.45 8.1279 29.5146 8.04903C29.5657 7.99235 29.6111 7.93096 29.6503 7.86571L29.7408 7.70797C29.782 7.63695 29.8139 7.56102 29.8356 7.48202C29.8507 7.41594 29.8658 7.3456 29.8809 7.26886C29.8964 7.17944 29.9044 7.08888 29.9046 6.99814C29.9131 6.81797 29.8852 6.63792 29.8227 6.46848C29.7602 6.29904 29.6643 6.1436 29.5405 6.0112C29.4111 5.88611 29.2572 5.78864 29.0882 5.72484C28.9192 5.66103 28.7387 5.63226 28.558 5.6403C28.3649 5.63258 28.1723 5.66545 27.9929 5.73672C27.8135 5.808 27.6515 5.91608 27.5174 6.05383C27.2434 6.36821 27.1036 6.77557 27.1274 7.18999V7.28165H27.888V7.18999C27.8743 6.97175 27.9375 6.75558 28.0668 6.57821C28.1266 6.50773 28.202 6.45184 28.2872 6.41487C28.3724 6.3779 28.4651 6.36085 28.558 6.36505C28.638 6.35978 28.7181 6.37216 28.7926 6.40128C28.8671 6.4304 28.9342 6.47555 28.9889 6.53345C29.094 6.67343 29.1466 6.84528 29.1376 7.01946C29.1394 7.15225 29.1099 7.28364 29.0514 7.40315C28.9608 7.55831 28.8507 7.70155 28.7239 7.82948L27.1037 9.56462L27.08 9.5902V10.283H30.0015V9.48788H28.2004Z" fill="#004985"/>
<path d="M33.6729 7.07916C33.6213 6.84379 33.5326 6.61791 33.41 6.40983C33.3041 6.23909 33.1693 6.08767 33.0114 5.96218C32.8687 5.84836 32.7068 5.76033 32.5331 5.70213C32.1999 5.59962 31.843 5.59962 31.5097 5.70213C31.3371 5.76273 31.1767 5.85292 31.0357 5.96858C30.8781 6.09365 30.7439 6.24517 30.6393 6.41622C30.5176 6.62221 30.4296 6.84596 30.3786 7.07916C30.2464 7.66741 30.2464 8.27721 30.3786 8.86546C30.4303 9.10112 30.5198 9.32709 30.6436 9.53479C30.7482 9.70584 30.8824 9.85737 31.04 9.98244C31.181 10.0927 31.3408 10.1772 31.5119 10.2318C31.8445 10.3339 32.2005 10.3339 32.5331 10.2318C32.7065 10.1755 32.8679 10.0881 33.0093 9.97391C33.1666 9.84791 33.3014 9.69658 33.4079 9.52627C33.53 9.318 33.6187 9.09218 33.6707 8.85694C33.8029 8.26868 33.8029 7.65889 33.6707 7.07063L33.6729 7.07916ZM33.0071 7.97231C33.0099 8.20695 32.9883 8.44125 32.9425 8.67148C32.912 8.83475 32.8575 8.99274 32.7809 9.14044C32.7238 9.24427 32.647 9.33619 32.5547 9.41116C32.4794 9.47424 32.3922 9.52205 32.2983 9.55185C32.2092 9.57623 32.1171 9.58842 32.0247 9.58808C31.8558 9.59205 31.6895 9.54684 31.5464 9.45805L32.936 7.22837C32.9865 7.47313 33.0103 7.72253 33.0071 7.97231ZM32.5547 6.53133L31.1284 8.79938C31.0631 8.53074 31.0326 8.25496 31.0379 7.9787C31.0349 7.74265 31.0565 7.50692 31.1025 7.27527C31.1315 7.11121 31.1852 6.9524 31.262 6.80418C31.3189 6.69965 31.3957 6.607 31.4882 6.53133C31.5641 6.46958 31.651 6.42257 31.7446 6.39277C31.8359 6.36826 31.9301 6.35607 32.0247 6.35654C32.2169 6.34944 32.4052 6.41154 32.5547 6.53133Z" fill="#004985"/>
<path d="M39.2616 7.09618C39.2091 6.86412 39.1196 6.64179 38.9966 6.43751C38.8883 6.26844 38.7512 6.11916 38.5915 5.99626C38.4463 5.88245 38.2813 5.79577 38.1046 5.74047C37.9379 5.68924 37.7643 5.66336 37.5897 5.66373H36.1699V10.2808H37.6543C37.8234 10.2815 37.9916 10.2549 38.152 10.202C38.3228 10.1442 38.4818 10.0569 38.6217 9.94404C38.7703 9.81752 38.897 9.66774 38.9966 9.50066C39.1189 9.29677 39.2083 9.07526 39.2616 8.84412C39.3937 8.26881 39.3937 7.67149 39.2616 7.09618ZM38.6152 7.98934C38.6157 8.18207 38.6006 8.37453 38.57 8.56487C38.5485 8.71202 38.5064 8.85549 38.445 8.9912C38.3966 9.09149 38.3366 9.18591 38.2662 9.27258C38.2071 9.34359 38.1337 9.40166 38.0507 9.4431C37.9766 9.48255 37.8977 9.51263 37.8159 9.53263C37.7392 9.55192 37.6602 9.56124 37.5811 9.56034H36.9067V6.39488H37.5186C37.6202 6.39471 37.7215 6.40688 37.8202 6.43112C37.9232 6.45963 38.0198 6.50738 38.1046 6.5718C38.203 6.64423 38.2864 6.73469 38.3502 6.83826C38.4328 6.9823 38.4917 7.13845 38.5247 7.30082C38.5782 7.52648 38.605 7.75755 38.6045 7.98934H38.6152Z" fill="#004985"/>
<path d="M41.5411 6.94055V8.95281C41.5287 9.0488 41.5033 9.14272 41.4657 9.23205C41.438 9.29956 41.3994 9.36218 41.3515 9.41751C41.3116 9.46185 41.2633 9.49806 41.2093 9.52409C41.1611 9.55146 41.1087 9.5709 41.0542 9.58164C41.0031 9.59209 40.9511 9.59709 40.899 9.59656C40.5328 9.59656 40.3604 9.36421 40.3604 8.86115V6.94268H39.6257V8.92084C39.6222 9.13834 39.6572 9.35477 39.7291 9.56032C39.787 9.72888 39.8853 9.88103 40.0157 10.0037C40.1263 10.106 40.2558 10.1864 40.397 10.2403C40.535 10.2905 40.681 10.3157 40.8279 10.3149C41.092 10.3174 41.3503 10.2384 41.5669 10.089L41.5777 10.2787H42.2779V6.94055H41.5411Z" fill="#004985"/>
<path d="M45.57 7.96589C45.5273 7.79139 45.4544 7.62552 45.3545 7.47561C45.1812 7.22788 44.9284 7.04535 44.6371 6.95763C44.5048 6.91928 44.3677 6.8999 44.2299 6.90007C43.9633 6.89652 43.7027 6.97799 43.4866 7.13242V5.66373H42.7454V10.2808H43.4456L43.4586 10.0677C43.6771 10.2294 43.9441 10.3142 44.217 10.3085C44.5787 10.3111 44.9272 10.1743 45.1886 9.92699C45.3441 9.77596 45.4609 9.59031 45.529 9.38555C45.617 9.13485 45.6593 8.8707 45.654 8.60538C45.6557 8.38942 45.6274 8.17425 45.57 7.96589ZM43.5857 7.96589C43.6254 7.88182 43.6853 7.80864 43.7602 7.75272C43.8256 7.7068 43.8985 7.6722 43.9756 7.65041C44.0459 7.63149 44.1183 7.62147 44.1911 7.62056C44.6694 7.62056 44.8999 7.94244 44.8999 8.60538C44.9014 8.74873 44.8862 8.89177 44.8547 9.0317C44.8344 9.13262 44.7965 9.22928 44.7427 9.31734C44.701 9.38194 44.6468 9.43772 44.5832 9.48148C44.5284 9.5196 44.4671 9.54775 44.4022 9.56461C44.3373 9.57964 44.2707 9.58679 44.204 9.58593C43.7731 9.58593 43.5404 9.31308 43.4736 8.75459V8.32826C43.4904 8.20215 43.5282 8.07968 43.5857 7.96589Z" fill="#004985"/>
<path d="M49.6808 6.51854C49.7446 6.51945 49.8079 6.50744 49.8668 6.48324C49.9257 6.45905 49.979 6.42318 50.0234 6.37785C50.0694 6.33322 50.1058 6.27976 50.1302 6.22075C50.1547 6.16174 50.1667 6.09842 50.1656 6.03466C50.1666 5.97059 50.1546 5.90697 50.1301 5.84762C50.1057 5.78828 50.0694 5.73444 50.0234 5.68933C49.9795 5.64303 49.9264 5.60623 49.8675 5.58128C49.8085 5.55633 49.7449 5.54376 49.6808 5.54438C49.617 5.54353 49.5536 5.556 49.495 5.58098C49.4363 5.60595 49.3837 5.64287 49.3404 5.68933C49.2505 5.7821 49.2009 5.90612 49.2025 6.03466C49.2015 6.09802 49.2132 6.16095 49.2369 6.21985C49.2606 6.27874 49.2957 6.33243 49.3404 6.37785C49.3842 6.42333 49.4371 6.45931 49.4957 6.48353C49.5543 6.50774 49.6173 6.51966 49.6808 6.51854Z" fill="#004985"/>
<path d="M47.2441 6.90007C46.9635 6.89637 46.6874 6.97019 46.4469 7.11324C46.2309 7.23356 46.0686 7.4299 45.9923 7.6632L45.9664 7.75273L46.5331 7.91473L46.5676 7.92752L46.6063 7.87636C46.68 7.78973 46.7737 7.72186 46.8794 7.67846C46.9851 7.63507 47.0999 7.6174 47.2139 7.62696C47.3639 7.61624 47.5122 7.66364 47.6276 7.75912C47.6754 7.81189 47.712 7.87359 47.7353 7.94058C47.7586 8.00758 47.7681 8.07852 47.7633 8.14921V8.21955L47.0222 8.26432C46.7064 8.26782 46.4 8.37087 46.1474 8.55848C46.0407 8.65173 45.9568 8.76769 45.9019 8.89765C45.8471 9.02762 45.8227 9.16819 45.8307 9.30881C45.8211 9.45415 45.8468 9.59966 45.9056 9.73316C45.9645 9.86667 46.0548 9.98429 46.169 10.0762C46.4143 10.247 46.7095 10.3331 47.0092 10.3213C47.282 10.3284 47.5515 10.2621 47.7892 10.1295V10.2851H48.4894V8.08526C48.4947 7.92765 48.4672 7.77063 48.4087 7.62396C48.3501 7.47728 48.2617 7.34408 48.149 7.23261C48.0282 7.12019 47.886 7.03284 47.7305 6.97573C47.5751 6.91861 47.4097 6.89289 47.2441 6.90007ZM47.7633 9.29389C47.675 9.39383 47.565 9.47262 47.4415 9.52432C47.3179 9.57601 47.1841 9.59927 47.0502 9.59232C46.9596 9.59458 46.869 9.58527 46.7808 9.56461C46.7322 9.55423 46.6874 9.53061 46.6516 9.4964C46.6262 9.46999 46.6064 9.43883 46.5934 9.40474C46.5815 9.36533 46.5757 9.32437 46.5762 9.28324C46.5762 9.01678 46.7184 8.88888 47.0329 8.8697L47.7633 8.82707V9.29389Z" fill="#004985"/>
<path d="M50.1979 9.58803V6.94055H48.8147V7.63333H49.4611V9.58803H48.8147V10.2808H50.8442V9.58803H50.1979Z" fill="#004985"/>
</g>
<defs>
<clipPath id="clip0_1:3338">
<rect width="56" height="56" fill="white"/>
</clipPath>
</defs>
</svg>
